<?xml version="1.0" encoding="UTF-8" standalone="no"?>
<!-- Created with Inkscape (http://www.inkscape.org/) -->

<svg
   version="1.1"
   id="svg2"
   xml:space="preserve"
   width="359.72"
   height="263.65332"
   viewBox="0 0 359.72 263.65332"
   sodipodi:docname="dci_acceptance_mark_white.eps"
   xmlns:inkscape="http://www.inkscape.org/namespaces/inkscape"
   xmlns:sodipodi="http://sodipodi.sourceforge.net/DTD/sodipodi-0.dtd"
   xmlns="http://www.w3.org/2000/svg"
   xmlns:svg="http://www.w3.org/2000/svg"><defs
     id="defs6" /><sodipodi:namedview
     id="namedview4"
     pagecolor="#ffffff"
     bordercolor="#666666"
     borderopacity="1.0"
     inkscape:pageshadow="2"
     inkscape:pageopacity="0.0"
     inkscape:pagecheckerboard="0" /><g
     id="g8"
     inkscape:groupmode="layer"
     inkscape:label="ink_ext_XXXXXX"
     transform="matrix(1.3333333,0,0,-1.3333333,0,263.65333)"><g
       id="g10"
       transform="scale(0.1)"><path
         d="m 2682.58,192.031 c 0,-97.6091 -80.95,-176.7224 -180.82,-176.7224 H 196.133 C 96.2813,15.3086 15.332,94.4219 15.332,192.031 V 1785.38 c 0,97.62 80.9493,176.73 180.801,176.73 H 2501.76 c 99.87,0 180.82,-79.11 180.82,-176.73 V 192.031"
         style="fill:#ffffff;fill-opacity:1;fill-rule:nonzero;stroke:none"
         id="path12" /><path
         d="M 196.133,0 C 88.0781,0.171875 0.0390625,85.6914 0,192.031 V 1785.38 c 0.0390625,106.36 88.0781,191.89 196.133,192.06 H 2501.74 c 108.07,-0.17 196.1,-85.7 196.16,-192.06 V 192.031 C 2697.84,85.6914 2609.81,0.171875 2501.74,0 Z M 30.6445,1785.38 V 192.031 C 30.8203,103.18 104.453,30.6797 196.133,30.6602 H 2501.74 c 91.66,0.0195 165.34,72.5198 165.49,161.3708 V 1785.38 c -0.15,88.88 -73.83,161.4 -165.49,161.4 H 196.133 c -91.68,0 -165.3127,-72.52 -165.4885,-161.4"
         style="fill:#214e8d;fill-opacity:1;fill-rule:nonzero;stroke:none"
         id="path14" /><path
         d="m 260.395,784.082 c 0,43.656 -22.801,40.789 -44.625,41.25 v 12.617 c 18.921,-0.918 38.324,-0.918 57.293,-0.918 20.378,0 48.05,0.918 84.003,0.918 125.715,0 194.2,-83.949 194.2,-169.918 0,-48.109 -28.168,-168.972 -200.051,-168.972 -24.731,0 -47.582,0.961 -70.391,0.961 -21.832,0 -43.23,-0.45 -65.054,-0.961 v 12.632 c 29.101,2.938 43.222,3.887 44.625,36.899 z m 47.589,-227.703 c 0,-37.399 26.727,-41.75 50.508,-41.75 104.903,0 139.321,79.121 139.321,151.453 0,90.789 -58.247,156.316 -151.938,156.316 -19.953,0 -29.133,-1.418 -37.891,-1.937 V 556.379"
         style="fill:#231f20;fill-opacity:1;fill-rule:nonzero;stroke:none"
         id="path16" /><path
         d="m 568.27,511.691 h 9.203 c 13.586,0 23.308,0 23.308,16.059 v 131.559 c 0,21.332 -7.269,24.281 -25.258,33.961 v 7.75 c 22.817,6.859 50.028,16.019 51.95,17.48 3.418,1.949 6.289,2.469 8.757,2.469 2.379,0 3.379,-2.918 3.379,-6.84 V 527.75 c 0,-16.059 10.704,-16.059 24.313,-16.059 h 8.219 v -12.632 c -16.512,0 -33.532,0.961 -50.95,0.961 -17.48,0 -34.968,-0.45 -52.921,-0.961 z m 51.941,284.02 c -12.652,0 -23.789,11.648 -23.789,24.269 0,12.161 11.668,23.352 23.789,23.352 12.602,0 23.797,-10.23 23.797,-23.352 0,-13.128 -10.707,-24.269 -23.797,-24.269"
         style="fill:#231f20;fill-opacity:1;fill-rule:nonzero;stroke:none"
         id="path18" /><path
         d="m 718.281,656.391 c 0,17.929 -5.359,22.781 -28.14,32.019 v 9.219 c 20.839,6.793 40.726,13.133 64.058,23.34 1.469,0 2.879,-0.969 2.879,-4.848 v -31.57 c 27.723,19.871 51.516,36.418 84.094,36.418 41.211,0 55.769,-30.11 55.769,-67.981 V 527.75 c 0,-16.059 10.711,-16.059 24.289,-16.059 h 8.758 v -12.632 c -17.05,0 -34.015,0.961 -51.476,0.961 -17.492,0 -34.981,-0.45 -52.461,-0.961 v 12.632 h 8.758 c 13.605,0 23.273,0 23.273,16.059 v 125.691 c 0,27.707 -16.91,41.289 -44.621,41.289 -15.551,0 -40.313,-12.601 -56.383,-23.332 V 527.75 c 0,-16.059 10.735,-16.059 24.332,-16.059 h 8.723 v -12.632 c -16.985,0 -33.981,0.961 -51.488,0.961 -17.446,0 -34.946,-0.45 -52.407,-0.961 v 12.632 H 695 c 13.578,0 23.281,0 23.281,16.059 v 128.641"
         style="fill:#231f20;fill-opacity:1;fill-rule:nonzero;stroke:none"
         id="path20" /><path
         d="m 966.895,633.051 c -0.997,-4.371 -0.997,-11.641 0,-28.16 2.851,-46.11 32.535,-83.961 71.335,-83.961 26.74,0 47.63,14.57 65.56,32.5 l 6.78,-6.801 c -22.34,-29.609 -50,-54.867 -89.78,-54.867 -77.216,0 -92.755,74.808 -92.755,105.859 0,95.168 64.078,123.348 98.025,123.348 39.37,0 81.64,-24.758 82.09,-76.239 0,-2.949 0,-5.832 -0.45,-8.75 l -4.39,-2.929 z m 85.965,15.551 c 12.11,0 13.53,6.32 13.53,12.168 0,24.718 -15.04,44.628 -42.24,44.628 -29.595,0 -49.986,-21.808 -55.814,-56.796 h 84.524"
         style="fill:#231f20;fill-opacity:1;fill-rule:nonzero;stroke:none"
         id="path22" /><path
         d="m 1119.34,511.691 h 13.12 c 13.54,0 23.26,0 23.26,16.059 v 136.398 c 0,15.024 -17.95,17.981 -25.24,21.864 v 7.258 c 35.44,15.062 54.87,27.699 59.31,27.699 2.84,0 4.3,-1.457 4.3,-6.34 V 670.93 h 1.02 c 12.1,18.929 32.53,50.039 62.13,50.039 12.13,0 27.65,-8.25 27.65,-25.739 0,-13.101 -9.18,-24.808 -22.77,-24.808 -15.1,0 -15.1,11.707 -32.11,11.707 -8.24,0 -35.43,-11.199 -35.43,-40.348 V 527.75 c 0,-16.059 9.7,-16.059 23.3,-16.059 h 27.16 v -12.632 c -26.7,0.511 -47.02,0.961 -67.92,0.961 -19.91,0 -40.31,-0.45 -57.78,-0.961 v 12.632"
         style="fill:#231f20;fill-opacity:1;fill-rule:nonzero;stroke:none"
         id="path24" /><path
         d="m 1306.24,566.57 c 6.33,-32.039 25.71,-59.269 61.22,-59.269 28.6,0 39.27,17.5 39.27,34.48 0,57.321 -105.81,38.848 -105.81,117.008 0,27.223 21.86,62.172 75.27,62.172 15.51,0 36.38,-4.402 55.3,-14.121 l 3.41,-49.481 h -11.16 c -4.85,30.571 -21.82,48.039 -52.93,48.039 -19.42,0 -37.85,-11.148 -37.85,-32.027 0,-56.84 112.61,-39.332 112.61,-115.562 0,-32.02 -25.7,-66.047 -83.5,-66.047 -19.4,0 -42.26,6.808 -59.2,16.519 l -5.37,55.84 8.74,2.449"
         style="fill:#231f20;fill-opacity:1;fill-rule:nonzero;stroke:none"
         id="path26" /><path
         d="m 1883.98,750.102 h -12.11 c -9.24,56.75 -49.54,79.597 -103.88,79.597 -55.9,0 -136.95,-37.359 -136.95,-153.879 0,-98.109 69.94,-168.519 144.69,-168.519 48.02,0 87.92,33.031 97.61,84.039 l 11.17,-2.899 -11.17,-70.91 c -20.39,-12.64 -75.27,-25.769 -107.35,-25.769 -113.56,0 -185.41,73.328 -185.41,182.558 0,99.559 88.85,170.95 184.01,170.95 39.31,0 77.17,-12.661 114.56,-25.782 l 4.83,-69.386"
         style="fill:#231f20;fill-opacity:1;fill-rule:nonzero;stroke:none"
         id="path28" /><path
         d="m 1901.51,511.691 h 9.19 c 13.64,0 23.33,0 23.33,16.059 v 270.359 c 0,31.59 -7.27,32.551 -25.74,37.903 v 7.777 c 19.41,6.301 39.82,15.02 50.04,20.891 5.27,2.871 9.19,5.351 10.62,5.351 2.97,0 3.93,-2.949 3.93,-6.851 V 527.75 c 0,-16.059 10.69,-16.059 24.27,-16.059 h 8.22 v -12.632 c -16.46,0 -33.45,0.961 -50.94,0.961 -17.47,0 -34.93,-0.45 -52.92,-0.961 v 12.632"
         style="fill:#231f20;fill-opacity:1;fill-rule:nonzero;stroke:none"
         id="path30" /><path
         d="m 2213.24,525.789 c 0,-8.769 5.31,-9.23 13.54,-9.23 5.86,0 13.11,0.461 19.47,0.461 v -10.219 c -20.89,-1.922 -60.72,-12.121 -69.96,-15.039 l -2.42,1.476 v 39.332 c -29.1,-23.781 -51.46,-40.808 -85.98,-40.808 -26.21,0 -53.38,17.027 -53.38,57.758 v 124.332 c 0,12.636 -1.93,24.777 -29.08,27.168 v 9.25 c 17.49,0.48 56.25,3.378 62.58,3.378 5.39,0 5.39,-3.378 5.39,-14.078 V 574.32 c 0,-14.582 0,-56.289 42.23,-56.289 16.48,0 38.33,12.59 58.71,29.559 v 130.64 c 0,9.7 -23.29,15.04 -40.74,19.872 v 8.73 c 43.65,2.957 70.87,6.816 75.72,6.816 3.92,0 3.92,-3.378 3.92,-8.738 V 525.789"
         style="fill:#231f20;fill-opacity:1;fill-rule:nonzero;stroke:none"
         id="path32" /><path
         d="m 2309.83,686.012 c 19.41,16.468 45.64,34.957 72.34,34.957 56.33,0 90.32,-49.09 90.32,-102 0,-63.578 -46.63,-127.207 -116.09,-127.207 -35.89,0 -54.83,11.687 -67.48,17.027 l -14.52,-11.168 -10.18,5.32 c 4.34,28.641 6.79,56.797 6.79,86.43 v 208.738 c 0,31.59 -7.31,32.551 -25.76,37.903 v 7.777 c 19.44,6.301 39.81,15.02 50,20.891 5.36,2.871 9.23,5.351 10.71,5.351 2.89,0 3.87,-2.961 3.87,-6.851 z m 0,-132.071 c 0,-18.441 17.49,-49.543 50.01,-49.543 51.94,0 73.78,50.993 73.78,94.223 0,52.418 -39.77,96.109 -77.63,96.109 -18.04,0 -33.06,-11.671 -46.16,-22.851 V 553.941"
         style="fill:#231f20;fill-opacity:1;fill-rule:nonzero;stroke:none"
         id="path34" /><path
         d="m 215.23,216.762 h 3.711 c 9.497,0 19.539,1.297 19.539,15.047 v 138.402 c 0,13.769 -10.042,15.078 -19.539,15.078 h -3.711 v 7.941 c 10.297,0 26.153,-1.05 39.129,-1.05 13.2,0 29.032,1.05 41.454,1.05 v -7.941 h -3.735 c -9.461,0 -19.519,-1.309 -19.519,-15.078 V 231.809 c 0,-13.75 10.058,-15.047 19.519,-15.047 h 3.735 v -7.942 c -12.672,0 -28.563,1.02 -41.727,1.02 -12.969,0 -28.559,-1.02 -38.856,-1.02 v 7.942"
         style="fill:#231f20;fill-opacity:1;fill-rule:nonzero;stroke:none"
         id="path36" /><path
         d="m 295.813,207.691 c -12.786,0 -28.594,1.059 -41.747,1.059 -12.929,0 -28.464,-1.059 -38.836,-1.059 h -1.152 v 1.129 7.93 1.148 h 1.152 3.692 c 9.59,0.231 18.305,1 18.387,13.911 v 138.402 c -0.082,12.93 -8.797,13.769 -18.387,13.937 h -4.844 v 1.153 9.078 h 1.152 c 10.372,0 26.211,-1.027 39.129,-1.027 13.141,0 28.961,1.027 41.454,1.027 h 1.175 v -1.18 -9.051 h -1.175 -3.684 c -9.602,-0.168 -18.367,-1.007 -18.422,-13.937 V 231.809 c 0.055,-12.911 8.82,-13.68 18.422,-13.911 h 4.859 v -1.148 -9.059 z m -1.145,2.258 0.012,5.621 h -2.551 c -9.449,0 -20.68,1.66 -20.742,16.239 v 138.402 c 0.062,14.609 11.293,16.238 20.742,16.238 h 2.539 v 5.641 c -12.188,-0.008 -27.5,-1.07 -40.309,-1.07 -12.55,0 -27.742,0.992 -37.972,1.07 v -5.641 h 2.535 c 9.418,0 20.668,-1.629 20.668,-16.238 V 231.809 c 0,-14.579 -11.25,-16.239 -20.668,-16.239 h -2.535 v -5.621 c 10.23,0.09 25.152,1.063 37.679,1.063 12.872,0 28.141,-0.992 40.602,-1.063"
         style="fill:#231f20;fill-opacity:1;fill-rule:nonzero;stroke:none"
         id="path38" /><path
         d="m 477.305,260.891 0.527,0.519 v 99.039 c 0,21.68 -15.078,24.852 -22.996,24.852 h -5.82 v 7.929 c 12.437,0 24.589,-1.05 36.98,-1.05 10.828,0 21.719,1.05 32.5,1.05 v -7.929 h -3.922 c -11.133,0 -23.551,-2.11 -23.551,-33.551 V 231.551 c 0,-9.262 0.262,-18.5 1.559,-26.699 H 482.543 L 346.516,356.52 V 247.648 c 0,-23 4.461,-30.886 24.808,-30.886 h 4.5 v -7.942 c -11.359,0 -22.711,1.032 -34.07,1.032 -11.859,0 -24.027,-1.032 -35.93,-1.032 v 7.942 h 3.703 c 18.227,0 23.77,12.418 23.77,33.488 v 111.309 c 0,14.781 -12.184,23.742 -24.024,23.742 h -3.449 v 7.929 c 10.02,0 20.336,-1.05 30.352,-1.05 7.949,0 15.617,1.05 23.535,1.05 L 477.305,260.891"
         style="fill:#231f20;fill-opacity:1;fill-rule:nonzero;stroke:none"
         id="path40" /><path
         d="m 492.578,203.738 -10.879,0.371 -134.066,149.43 V 247.648 c 0.316,-22.968 3.808,-29.5 23.695,-29.75 h 5.66 v -1.136 -9.071 h -1.168 c -11.429,0 -22.8,1.059 -34.074,1.059 -11.828,0 -23.969,-1.059 -35.933,-1.059 h -1.165 v 1.129 9.078 h 1.165 3.718 c 17.457,0.102 22.446,11.321 22.637,32.364 V 361.52 c -0.051,14.07 -11.586,22.628 -22.891,22.628 h -4.629 v 1.204 9.027 h 1.165 c 10.093,0 20.437,-1.027 30.343,-1.027 7.883,0 15.516,1.027 24.426,0.617 L 476.68,263.281 v 97.168 c -0.133,20.981 -14.153,23.531 -21.84,23.699 h -6.988 v 1.204 9.027 h 1.168 c 12.48,0 24.636,-1.027 36.98,-1.027 10.746,0 21.578,1.027 32.5,1.027 h 1.156 v -1.149 -9.082 H 518.5 514.57 C 503.656,383.871 492.473,382.91 492.148,351.75 V 231.551 c 0,-9.25 0.293,-18.473 1.563,-26.492 l 0.238,-1.321 z m -10.027,2.301 h 8.738 c -1.184,7.949 -1.391,16.723 -1.391,25.512 V 351.75 c 0,31.711 13.29,34.699 24.672,34.719 h 2.778 v 5.621 c -10.41,-0.078 -20.84,-1.039 -31.348,-1.039 -12.098,0 -23.859,0.961 -35.801,1.039 l -0.027,-5.621 h 4.668 c 8.121,-0.02 24.129,-3.629 24.129,-26.02 l -0.352,-99.871 -0.515,-0.508 -0.907,-0.851 -117.488,132.871 c -7.848,0 -15.488,-1.039 -23.551,-1.039 -9.676,0 -19.597,0.961 -29.179,1.039 l -0.047,-5.621 h 2.347 c 12.395,-0.02 25.141,-9.481 25.141,-24.949 V 250.262 c 0,-21.141 -5.887,-34.641 -24.887,-34.711 l -2.554,0.07 v -5.672 c 11.441,0.09 23.234,1.063 34.769,1.063 11.024,0 22.024,-0.973 32.922,-1.063 v 5.602 h -3.34 c -20.793,0.07 -25.937,9.129 -25.957,32.097 V 359.48 Z m -5.242,54.852 0.832,0.757 z m -0.629,0.519 v 0.102 l -0.211,0.168 z"
         style="fill:#231f20;fill-opacity:1;fill-rule:nonzero;stroke:none"
         id="path42" /><path
         d="m 558.086,380.02 c -19.84,0 -20.602,-4.782 -24.57,-24.04 h -7.93 c 1.039,7.399 2.359,14.79 3.18,22.45 1.058,7.429 1.582,14.8 1.582,22.441 h 6.336 c 2.125,-7.93 8.73,-7.641 15.894,-7.641 H 688.84 c 7.168,0 13.758,0.258 14.305,8.192 l 6.304,-1.082 c -1.019,-7.11 -2.101,-14.25 -2.871,-21.399 -0.515,-7.132 -0.515,-14.242 -0.515,-21.371 l -7.95,-2.941 c -0.535,9.762 -1.84,25.391 -19.539,25.391 H 635.242 V 239.469 c 0,-20.379 9.254,-22.707 21.914,-22.707 h 5.039 v -7.942 c -10.3,0 -28.804,1.02 -43.05,1.02 -15.868,0 -34.379,-1.02 -44.688,-1.02 v 7.942 h 5.039 c 14.563,0 21.922,1.297 21.922,22.16 V 380.02 h -43.332"
         style="fill:#231f20;fill-opacity:1;fill-rule:nonzero;stroke:none"
         id="path44" /><path
         d="m 662.219,207.691 c -10.41,0 -28.883,1.047 -43.074,1.047 -15.848,0 -34.321,-1.047 -44.688,-1.047 h -1.121 v 1.129 9.078 h 1.121 5.039 c 14.563,0.34 20.41,0.532 20.746,21.024 v 139.969 h -42.156 v 1.129 1.179 h 44.449 V 238.922 c 0,-21.211 -8.551,-23.352 -23.039,-23.371 h -3.91 v -5.582 c 10.422,0.07 28.223,1.043 43.559,1.043 13.761,0 31.402,-0.973 41.871,-1.043 v 5.582 h -3.86 c -12.769,0.019 -23.058,3.16 -23.058,23.918 v 141.73 h 44.476 c 17.719,-0.07 20.063,-15.129 20.621,-24.961 l 5.711,2.114 c 0,6.898 0.032,13.808 0.508,20.75 0.774,6.828 1.734,13.539 2.731,20.308 l -4.02,0.672 c -1.23,-7.691 -8.672,-8.102 -15.297,-8 h -136.25 -1.383 c -6.211,-0.012 -12.988,0.289 -15.359,7.656 h -4.359 c -0.051,-7.297 -0.547,-14.386 -1.551,-21.429 -0.789,-7.258 -1.992,-14.227 -2.957,-21.227 h 5.636 c 3.481,18.43 5.739,24.379 25.481,24.117 v -1.179 -1.129 c -19.563,-0.391 -19.141,-3.661 -23.445,-23.18 l -0.192,-0.902 h -0.933 -9.246 l 0.144,1.371 c 1.074,7.371 2.41,14.789 3.184,22.461 1.097,7.328 1.605,14.66 1.605,22.23 v 1.168 h 1.133 7.254 l 0.199,-0.828 c 1.785,-6.66 6.668,-6.711 13.406,-6.832 h 1.383 136.25 c 7.36,0.121 12.719,0.223 13.168,7.133 l 0.098,1.25 1.191,-0.242 7.473,-1.18 -0.192,-1.168 c -1.05,-7.094 -2.082,-14.203 -2.871,-21.281 -0.5,-7.082 -0.5,-14.18 -0.5,-21.321 v -0.8 l -0.769,-0.309 -9.34,-3.422 -0.07,1.531 c -0.723,9.942 -1.746,24.321 -18.442,24.321 H 636.395 V 239.469 c 0.269,-19.918 8.171,-21.321 20.761,-21.571 h 6.188 v -1.136 -9.071 h -1.125"
         style="fill:#231f20;fill-opacity:1;fill-rule:nonzero;stroke:none"
         id="path46" /><path
         d="m 717.887,216.762 h 3.718 c 9.489,0 19.551,1.297 19.551,15.047 v 138.402 c 0,13.769 -10.062,15.078 -19.551,15.078 h -3.718 v 7.941 c 16.066,0 43.605,-1.05 65.75,-1.05 22.238,0 49.668,1.05 67.636,1.05 -0.457,-11.359 -0.21,-28.839 0.563,-40.441 l -7.957,-2.098 c -1.274,17.18 -4.438,30.879 -32.195,30.879 h -36.68 v -69.172 h 31.383 c 15.847,0 19.304,8.954 20.871,23.231 h 7.918 c -0.524,-10.32 -0.801,-20.617 -0.801,-30.91 0,-10.059 0.277,-20.09 0.801,-30.11 l -7.918,-1.578 c -1.567,15.828 -2.36,26.129 -20.602,26.129 h -31.652 v -61.519 c 0,-17.2 15.269,-17.2 32.184,-17.2 31.707,0 45.699,2.129 53.636,32.207 l 7.367,-1.816 c -3.433,-14.031 -6.586,-27.992 -8.949,-42.012 -16.929,0 -47.308,1.02 -71.039,1.02 -23.828,0 -55.238,-1.02 -70.316,-1.02 v 7.942"
         style="fill:#231f20;fill-opacity:1;fill-rule:nonzero;stroke:none"
         id="path48" /><path
         d="m 859.223,207.691 c -16.953,0 -47.352,1.098 -71.047,1.098 -23.805,0 -55.203,-1.098 -70.293,-1.098 h -1.11 v 1.129 7.942 1.136 h 1.11 3.719 c 9.558,0.161 18.261,1 18.378,13.911 v 138.402 c -0.117,12.91 -8.82,13.769 -18.378,13.937 h -4.829 v 1.153 9.078 h 1.11 c 16.14,0 43.621,-1.027 65.762,-1.027 22.21,0 49.636,1.027 67.628,1.027 h 1.168 l -0.039,-1.219 c -0.172,-3.949 -0.277,-8.648 -0.277,-13.621 0,-9.129 0.277,-19.141 0.801,-26.66 l 0.047,-0.938 -0.895,-0.269 -9.285,-2.434 -0.039,1.364 c -1.563,17.136 -3.863,29.609 -31.07,29.867 h -35.598 l -0.023,-66.91 h 30.32 c 15.226,0.16 17.949,7.941 19.75,22.191 l 0.058,1.059 h 1.051 9.11 l -0.02,-1.207 c -0.512,-10.321 -0.82,-20.59 -0.82,-30.883 0,-9.989 0.308,-20.02 0.82,-30.059 l 0.02,-0.961 -0.961,-0.219 -9.2,-1.832 -0.058,1.243 c -1.832,16.129 -1.949,24.968 -19.485,25.16 h -30.562 v -60.41 c 0.035,-16.059 13.875,-15.969 31.098,-16.059 31.808,0.188 44.55,1.75 52.507,31.379 l 0.27,1.07 1.113,-0.179 8.469,-2.204 -0.242,-1.089 c -3.426,-13.977 -6.574,-27.95 -8.969,-41.93 l -0.199,-0.938 z m -0.981,2.278 c 2.309,13.363 5.321,26.703 8.559,40 l -5.199,1.312 c -7.911,-29.551 -23.239,-32.191 -54.418,-31.992 -16.653,0 -33.293,0 -33.379,18.352 v 62.668 h 32.843 c 18.454,0.191 20.317,-10.93 21.633,-25.957 l 5.703,1.168 c -0.511,9.742 -0.769,19.519 -0.769,29.199 0,9.922 0.258,19.82 0.769,29.793 h -5.703 c -1.488,-13.801 -5.801,-23.43 -21.898,-23.262 h -32.578 v 71.512 h 37.879 c 27.476,0.218 32.027,-14 33.226,-30.621 l 5.692,1.55 c -0.461,7.45 -0.766,17.028 -0.766,25.848 0,4.52 0.113,8.813 0.266,12.551 -17.95,-0.078 -44.743,-1.039 -66.457,-1.039 -21.711,0 -48.434,0.961 -64.602,1.039 v -5.621 h 2.559 c 9.398,-0.02 20.64,-1.649 20.703,-16.258 V 231.809 C 742.242,217.23 731,215.621 721.602,215.551 h -2.559 v -5.582 c 15.383,0.051 45.918,1.043 69.133,1.043 23.316,0 53.035,-0.992 70.066,-1.043"
         style="fill:#231f20;fill-opacity:1;fill-rule:nonzero;stroke:none"
         id="path50" /><path
         d="m 903.871,365.25 c 0,19.262 -10.578,20.051 -18.777,20.051 h -4.774 v 7.929 c 8.457,0 24.84,-1.05 40.969,-1.05 15.82,0 28.52,1.05 42.52,1.05 33.242,0 62.891,-8.968 62.891,-46.511 0,-23.758 -15.86,-38.27 -36.72,-46.508 l 45.15,-67.59 c 7.42,-11.18 12.66,-14.312 25.64,-15.859 v -7.942 c -8.74,0 -17.19,1.02 -25.88,1.02 -8.19,0 -16.68,-1.02 -24.83,-1.02 -20.357,26.668 -37.81,55.192 -54.966,85.621 H 937.68 v -56.57 c 0,-20.34 9.492,-21.109 21.601,-21.109 h 4.789 v -7.942 c -15.09,0 -30.347,1.02 -45.441,1.02 -12.676,0 -25.098,-1.02 -38.309,-1.02 v 7.942 h 4.774 c 9.808,0 18.777,4.468 18.777,14.226 z m 33.809,-61.281 h 12.91 c 26.453,0 40.687,10.011 40.687,41.203 0,23.488 -15.054,38.547 -38.597,38.547 -7.93,0 -11.309,-0.809 -15,-1.071 v -78.679"
         style="fill:#231f20;fill-opacity:1;fill-rule:nonzero;stroke:none"
         id="path52" /><path
         d="m 1060.77,207.691 c -8.86,0 -17.26,1.059 -25.95,1.059 -8.05,0 -16.5,-1.059 -25.7,-0.621 -20.268,26.601 -37.64,54.961 -54.702,85.121 h -15.609 v -55.328 c 0.293,-19.891 8.261,-19.742 20.472,-20.024 h 5.93 v -1.136 -9.071 h -1.172 c -15.098,0 -30.449,1.059 -45.422,1.059 -12.617,0 -25.027,-1.059 -38.297,-1.059 h -1.148 v 1.129 9.078 h 1.148 4.774 c 9.496,0.071 17.527,4.211 17.566,13.09 V 365.25 c -0.199,18.73 -9.367,18.641 -17.566,18.898 h -5.922 v 1.141 9.09 h 1.148 c 8.551,0 24.86,-1.027 40.969,-1.027 15.774,0 28.441,1.027 42.52,1.027 33.308,-0.07 63.961,-9.238 64.041,-47.617 0,-23.84 -15.76,-38.742 -36.131,-47.051 l 44.361,-66.461 c 7.39,-10.961 11.99,-13.699 24.84,-15.352 l 0.96,-0.148 v -0.988 -9.071 z m -123.098,87.887 h 18.051 l 0.328,-0.59 c 17.203,-30.347 34.558,-58.879 54.009,-85.039 8.04,0 16.53,1.063 24.76,1.063 8.43,0 16.59,-0.922 24.79,-1.043 v 5.801 c -12.38,1.511 -18.2,5.25 -25.41,16.199 l -45.993,68.769 1.305,0.532 c 20.688,8.152 36.018,22.261 36.028,45.492 -0.01,36.648 -28.52,45.148 -61.731,45.328 -13.907,0 -26.606,-1.07 -42.52,-1.07 -15.519,0 -31.195,0.992 -39.84,1.07 v -5.621 h 3.645 c 8.199,-0.02 19.867,-1.379 19.867,-21.219 V 230.988 c 0,-10.597 -9.934,-15.418 -19.867,-15.437 h -3.645 v -5.582 c 12.699,0.051 24.762,1.043 37.168,1.043 14.75,0 29.676,-0.992 44.281,-1.043 v 5.582 h -3.617 C 947.25,215.57 936.5,217.059 936.5,237.922 v 57.656 z m 0,7.254 H 936.5 v 80.887 l 1.012,0.082 c 3.617,0.289 7.179,1.019 15.168,1.019 24.058,0 39.73,-15.629 39.754,-39.718 -0.075,-31.543 -15.192,-42.262 -41.844,-42.27 z m 12.918,2.25 c 26.148,0.258 39.332,9.328 39.59,40.02 -0.16,23.078 -14.492,37.398 -37.5,37.5 -7.129,0 -10.496,-0.661 -13.871,-0.993 v -76.527 h 11.781"
         style="fill:#231f20;fill-opacity:1;fill-rule:nonzero;stroke:none"
         id="path54" /><path
         d="m 1240.13,260.891 0.46,0.519 v 99.039 c 0,21.68 -15.01,24.852 -22.94,24.852 h -5.79 v 7.929 c 12.42,0 24.53,-1.05 36.98,-1.05 10.86,0 21.61,1.05 32.52,1.05 v -7.929 h -3.98 c -11.1,0 -23.51,-2.11 -23.51,-33.551 V 231.551 c 0,-9.262 0.26,-18.5 1.56,-26.699 h -10 L 1109.39,356.52 V 247.648 c 0,-23 4.46,-30.886 24.8,-30.886 h 4.5 v -7.942 c -11.35,0 -22.73,1.032 -34.08,1.032 -11.93,0 -24.06,-1.032 -35.94,-1.032 v 7.942 h 3.67 c 18.24,0 23.82,12.418 23.82,33.488 v 111.309 c 0,14.781 -12.17,23.742 -24.05,23.742 h -3.44 v 7.929 c 10,0 20.38,-1.05 30.4,-1.05 7.85,0 15.55,1.05 23.49,1.05 l 117.57,-132.339"
         style="fill:#231f20;fill-opacity:1;fill-rule:nonzero;stroke:none"
         id="path56" /><path
         d="m 1255.42,203.738 -10.85,0.371 -134.09,149.411 V 247.66 c 0.31,-23.012 3.79,-29.512 23.71,-29.762 h 5.6 v -1.136 -9.071 h -1.15 c -11.42,0 -22.76,1.098 -34.08,1.098 -11.79,0 -24,-1.098 -35.9,-1.098 h -1.18 v 1.129 9.078 h 1.18 3.68 c 17.45,0.071 22.45,11.321 22.62,32.422 v 111.239 c -0.03,14.082 -11.55,22.589 -22.85,22.589 h -4.63 v 1.153 9.078 h 1.18 c 10.09,0 20.43,-1.027 30.4,-1.027 7.76,0 15.41,1.027 24.27,0.687 l 116.14,-130.758 v 97.168 c -0.07,20.981 -14.14,23.582 -21.82,23.699 h -6.97 v 1.153 9.078 h 1.15 c 12.48,0 24.66,-1.027 37.01,-1.027 10.76,0 21.58,1.027 32.47,1.027 h 1.17 v -1.18 -9.051 h -1.17 -3.93 c -10.9,-0.257 -22.13,-1.238 -22.39,-32.398 V 231.551 c 0,-9.25 0.23,-18.41 1.58,-26.512 l 0.13,-1.301 z m -10,2.301 h 8.66 c -1.16,7.902 -1.39,16.723 -1.39,25.512 V 351.75 c 0.02,31.711 13.38,34.648 24.69,34.719 h 2.78 v 5.621 c -10.4,-0.078 -20.84,-1.039 -31.32,-1.039 -12.14,0 -23.91,0.961 -35.86,1.039 v -5.621 h 4.67 c 8.14,-0.071 24.14,-3.629 24.14,-26.02 l -0.38,-99.871 -0.48,-0.508 -0.83,-0.871 -117.54,132.891 c -7.86,0 -15.52,-1.039 -23.5,-1.039 -9.8,0 -19.67,0.961 -29.27,1.039 v -5.621 h 2.32 c 12.43,-0.071 25.14,-9.438 25.14,-24.91 V 250.32 c 0,-21.199 -5.97,-34.699 -24.91,-34.769 l -2.55,0.019 v -5.609 c 11.41,0.078 23.18,1.051 34.77,1.051 11.08,0 22.06,-0.973 32.98,-1.051 v 5.59 h -3.35 c -20.79,0.019 -25.97,9.097 -26.03,32.109 v 111.781 z m -5.32,54.852 0.86,0.757 z m -0.63,0.519 v 0.07 l -0.19,0.2 z"
         style="fill:#231f20;fill-opacity:1;fill-rule:nonzero;stroke:none"
         id="path58" /><path
         d="m 1323.83,246.59 c -2.66,-8.949 -5.85,-15.891 -5.85,-20.578 0,-7.953 11.13,-9.262 19.82,-9.262 h 2.95 v -7.93 c -10.61,0.571 -21.39,1.02 -32.02,1.02 -9.51,0 -18.97,-0.449 -28.51,-1.02 v 7.93 h 1.61 c 10.28,0 19.03,6.09 22.95,17.191 l 42.27,121.219 c 3.45,9.801 8.21,23 9.82,32.801 8.4,2.891 19.01,8.141 24.01,11.348 0.82,0.273 1.31,0.543 2.11,0.543 0.8,0 1.29,0 1.87,-0.832 0.78,-2.09 1.55,-4.469 2.37,-6.579 l 48.63,-138.191 c 3.17,-9.219 6.31,-18.988 9.69,-26.961 3.22,-7.41 8.77,-10.539 17.52,-10.539 h 1.58 v -7.93 c -11.9,0.571 -23.82,1.02 -36.44,1.02 -12.95,0 -26.2,-0.449 -39.67,-1.02 v 7.93 h 2.91 c 6.04,0 16.41,1.051 16.41,7.66 0,3.41 -2.39,10.551 -5.34,19.039 l -10.29,30.633 h -59.96 z m 38.57,117.039 h -0.55 l -24.55,-74.77 h 49.36 l -24.26,74.77"
         style="fill:#231f20;fill-opacity:1;fill-rule:nonzero;stroke:none"
         id="path60" /><path
         d="m 1464.57,207.691 c -11.87,0.508 -23.78,1.098 -36.36,1.098 -12.95,0 -26.13,-0.59 -39.61,-1.098 l -1.22,-0.062 v 1.191 9.129 h 1.16 2.91 c 6.12,0 15.2,1.371 15.22,6.461 0.06,3.012 -2.31,10.25 -5.22,18.649 l -10.06,29.89 h -58.27 l -8.22,-26.699 c -2.66,-8.98 -5.87,-15.961 -5.82,-20.262 0.09,-6.449 9.95,-8.039 18.72,-8.039 h 4.06 v -1.199 -9.121 l -1.2,0.062 c -10.56,0.508 -21.34,1.098 -31.91,1.098 -9.43,0 -18.98,-0.59 -28.44,-1.098 l -1.23,-0.062 v 1.191 9.129 h 1.13 1.61 c 9.82,0.02 18.02,5.633 21.84,16.36 l 42.31,121.261 c 3.41,9.782 8.21,22.918 10.49,33.481 8.29,2.808 18.92,8.14 23.99,11.328 0.74,0.262 1.47,0.601 2.53,0.601 0.65,0.04 2.07,-0.128 2.93,-1.511 0.75,-2.168 1.59,-4.539 2.39,-6.668 l 48.64,-138.172 c 3.11,-9.25 6.27,-19.008 9.73,-26.84 3.06,-7.039 7.91,-9.82 16.4,-9.84 h 2.67 v -1.199 -9.121 z m -74.88,2.348 c 13.07,0.461 25.9,0.973 38.52,0.973 12.25,0 23.77,-0.512 35.25,-0.973 v 5.531 h -0.39 c -9.06,-0.058 -15.29,3.5 -18.53,11.289 -3.44,7.981 -6.65,17.789 -9.77,27.039 l -48.64,138.184 c -0.8,2.109 -1.55,4.469 -2.24,6.348 -0.26,0.261 -0.2,0.261 -0.41,0.261 h -0.5 c -0.53,0 -0.85,-0.16 -1.53,-0.332 -5.08,-3.3 -15.67,-8.507 -23.53,-10.57 -1.61,-10.008 -6.37,-23.207 -9.8,-33 l -42.27,-121.23 c -4.02,-11.477 -13.31,-18.008 -24.03,-17.989 h -0.44 v -5.531 c 9.06,0.461 18.2,0.973 27.37,0.973 10.22,0 20.64,-0.512 30.75,-0.973 v 5.531 h -1.7 c -8.63,0.121 -20.65,1.059 -20.95,10.418 0.02,5.242 3.26,12 5.85,20.934 l 1.12,-0.332 -1.12,0.359 8.7,28.231 h 61.6 l 10.58,-31.371 c 2.97,-8.5 5.37,-15.539 5.37,-19.399 -0.39,-8.09 -11.51,-8.691 -17.5,-8.84 h -1.76 z m -54,77.68 25.29,77.082 h 1.42 v -1.172 l -0.28,-0.078 0.28,0.078 v 1.172 h 0.79 l 25.11,-77.082 z m 3.16,2.312 h 46.25 l -22.99,70.789 z m 22.4,73.258 0.61,0.191 -0.61,-0.191"
         style="fill:#231f20;fill-opacity:1;fill-rule:nonzero;stroke:none"
         id="path62" /><path
         d="m 1476.26,380.02 c -19.81,0 -20.61,-4.782 -24.59,-24.04 h -7.94 c 1.04,7.399 2.39,14.79 3.21,22.45 1.03,7.429 1.54,14.8 1.54,22.441 h 6.39 c 2.07,-7.93 8.69,-7.641 15.82,-7.641 h 136.34 c 7.1,0 13.7,0.258 14.22,8.192 l 6.32,-1.082 c -0.98,-7.11 -2.03,-14.25 -2.86,-21.399 -0.58,-7.132 -0.58,-14.242 -0.58,-21.371 l -7.89,-2.941 c -0.47,9.762 -1.8,25.391 -19.54,25.391 h -43.32 V 239.469 c 0,-20.379 9.26,-22.707 21.92,-22.707 h 5.05 v -7.942 c -10.32,0 -28.78,1.02 -43.08,1.02 -15.82,0 -34.36,-1.02 -44.66,-1.02 v 7.942 h 5.03 c 14.56,0 21.93,1.297 21.93,22.16 V 380.02 h -43.31"
         style="fill:#231f20;fill-opacity:1;fill-rule:nonzero;stroke:none"
         id="path64" /><path
         d="m 1580.35,207.691 c -10.38,0 -28.9,1.047 -43.1,1.047 -15.78,0 -34.28,-1.047 -44.63,-1.047 h -1.17 v 1.129 9.078 h 1.17 5.02 c 14.57,0.34 20.41,0.532 20.76,21.024 l -0.02,139.969 h -42.12 v 1.129 1.179 h 44.45 V 238.922 c 0,-21.211 -8.56,-23.301 -23.07,-23.352 h -3.89 v -5.621 c 10.44,0.09 28.19,1.063 43.5,1.063 13.81,0 31.49,-0.973 41.92,-1.063 v 5.621 h -3.88 c -12.73,0.051 -23.02,3.11 -23.04,23.899 v 141.73 h 44.45 c 17.75,-0.07 20.06,-15.129 20.57,-24.961 l 5.74,2.114 c 0,6.898 0.04,13.808 0.58,20.718 0.71,6.809 1.71,13.571 2.67,20.309 l -3.99,0.703 c -1.21,-7.691 -8.67,-8.121 -15.24,-8 h -136.34 -1.35 c -6.23,-0.07 -12.97,0.289 -15.37,7.68 h -4.32 c -0.06,-7.313 -0.58,-14.41 -1.62,-21.453 -0.72,-7.289 -1.99,-14.278 -3,-21.227 h 5.68 c 3.47,18.43 5.76,24.406 25.55,24.117 v -1.179 -1.129 c -19.59,-0.34 -19.16,-3.661 -23.47,-23.18 l -0.19,-0.902 h -0.93 -9.27 l 0.16,1.312 c 1.11,7.43 2.41,14.848 3.18,22.461 1.08,7.387 1.57,14.719 1.57,22.289 v 1.168 h 1.17 7.22 l 0.22,-0.828 c 1.85,-6.66 6.66,-6.711 13.42,-6.832 h 1.35 136.34 c 7.31,0.121 12.64,0.223 13.11,7.109 l 0.04,1.274 1.23,-0.242 7.5,-1.18 -0.18,-1.168 c -1.09,-7.094 -2.09,-14.203 -2.89,-21.281 -0.54,-7.082 -0.54,-14.192 -0.54,-21.321 v -0.8 l -0.77,-0.309 -9.35,-3.422 -0.04,1.531 c -0.69,9.942 -1.74,24.321 -18.44,24.321 h -42.18 V 239.469 c 0.27,-19.918 8.18,-21.321 20.77,-21.571 h 6.16 v -1.136 -9.071 h -1.1"
         style="fill:#231f20;fill-opacity:1;fill-rule:nonzero;stroke:none"
         id="path66" /><path
         d="m 1637.35,216.762 h 3.7 c 9.52,0 19.52,1.297 19.52,15.047 v 138.402 c 0,13.769 -10,15.078 -19.52,15.078 h -3.7 v 7.941 c 10.31,0 26.13,-1.05 39.06,-1.05 13.24,0 29.1,1.05 41.54,1.05 v -7.941 h -3.71 c -9.55,0 -19.59,-1.309 -19.59,-15.078 V 231.809 c 0,-13.75 10.04,-15.047 19.59,-15.047 h 3.71 v -7.942 c -12.69,0 -28.56,1.02 -41.75,1.02 -12.97,0 -28.54,-1.02 -38.85,-1.02 v 7.942"
         style="fill:#231f20;fill-opacity:1;fill-rule:nonzero;stroke:none"
         id="path68" /><path
         d="m 1717.95,207.691 c -12.77,0 -28.57,1.098 -41.75,1.098 -12.93,0 -28.53,-1.098 -38.85,-1.098 h -1.13 v 1.129 7.942 1.136 h 1.13 3.71 c 9.52,0.161 18.3,1 18.36,13.911 v 138.402 c -0.06,12.91 -8.84,13.769 -18.36,13.937 h -4.84 v 1.153 9.078 h 1.13 c 10.32,0 26.21,-1.027 39.06,-1.027 13.17,0 29.02,1.027 41.54,1.027 h 1.1 v -1.149 -9.082 h -1.1 -3.7 c -9.67,-0.168 -18.36,-1.027 -18.45,-13.937 V 231.809 c 0.09,-12.911 8.78,-13.75 18.45,-13.911 h 4.8 v -1.136 -9.071 z m -1.2,2.278 v 5.601 h -2.5 c -9.48,0 -20.69,1.66 -20.69,16.239 v 138.402 c 0,14.609 11.21,16.238 20.69,16.258 h 2.5 v 5.621 c -12.18,-0.078 -27.48,-1.039 -40.34,-1.039 -12.54,0 -27.66,0.961 -37.91,1.039 v -5.621 h 2.56 c 9.38,-0.02 20.64,-1.649 20.67,-16.258 V 231.809 c -0.03,-14.579 -11.29,-16.239 -20.67,-16.239 h -2.56 v -5.601 c 10.18,0.121 25.12,1.043 37.7,1.043 12.81,0 28.09,-0.973 40.55,-1.043"
         style="fill:#231f20;fill-opacity:1;fill-rule:nonzero;stroke:none"
         id="path70" /><path
         d="m 1823.29,397.191 c 56.32,0 101.21,-34.91 101.21,-91.179 0,-60.774 -43.6,-101.16 -99.85,-101.16 -56.03,0 -98.81,38.046 -98.81,94.859 0,54.918 42.52,97.48 97.45,97.48 m 3.99,-180.711 c 51.27,0 60.21,45.211 60.21,83.731 0,38.609 -20.82,85.348 -64.7,85.348 -46.22,0 -59.97,-41.219 -59.97,-76.59 0,-47.278 21.68,-92.489 64.46,-92.489"
         style="fill:#231f20;fill-opacity:1;fill-rule:nonzero;stroke:none"
         id="path72" /><path
         d="m 1724.66,299.711 c 0.11,55.559 43.12,98.539 98.62,98.629 v -1.149 -1.16 c -54.31,0 -96.32,-41.98 -96.38,-96.32 0.11,-56.172 42.27,-93.652 97.76,-93.672 55.68,0.02 98.65,39.832 98.72,100.012 -0.05,55.57 -44.23,89.929 -100.1,89.98 v 1.16 1.149 c 56.72,-0.059 102.25,-35.309 102.35,-92.289 -0.06,-61.403 -44.18,-102.211 -100.97,-102.313 -56.51,0.102 -99.89,38.532 -100,95.973 m 37,9.258 c 0.08,35.551 13.95,77.769 61.12,77.769 44.86,-0.097 65.78,-47.707 65.87,-86.527 -0.09,-38.52 -9.15,-84.813 -61.36,-84.813 v 1.082 1.161 c 50.23,0.039 58.96,44.05 59.04,82.57 0,38.269 -20.61,84.129 -63.55,84.199 -45.32,-0.051 -58.71,-40.25 -58.83,-75.441 0.02,-47.059 21.5,-91.258 63.34,-91.328 v -1.161 -1.082 c -43.85,0.043 -65.55,46.012 -65.63,93.571"
         style="fill:#231f20;fill-opacity:1;fill-rule:nonzero;stroke:none"
         id="path74" /><path
         d="m 2102.52,260.891 0.55,0.519 v 99.039 c 0,21.68 -15.11,24.852 -23.03,24.852 h -5.75 v 7.929 c 12.38,0 24.56,-1.05 36.94,-1.05 10.86,0 21.69,1.05 32.53,1.05 v -7.929 h -3.97 c -11.07,0 -23.54,-2.11 -23.54,-33.551 V 231.551 c 0,-9.262 0.28,-18.5 1.62,-26.699 h -10.05 L 1971.74,356.52 V 247.648 c 0,-23 4.51,-30.886 24.81,-30.886 h 4.53 v -7.942 c -11.37,0 -22.71,1.032 -34.07,1.032 -11.9,0 -24.06,-1.032 -35.95,-1.032 v 7.942 h 3.71 c 18.26,0 23.77,12.418 23.77,33.488 v 111.309 c 0,14.781 -12.11,23.742 -24.06,23.742 h -3.42 v 7.929 c 10.04,0 20.33,-1.05 30.39,-1.05 7.91,0 15.53,1.05 23.49,1.05 l 117.58,-132.339"
         style="fill:#231f20;fill-opacity:1;fill-rule:nonzero;stroke:none"
         id="path76" /><path
         d="m 2117.88,203.738 -10.93,0.371 -134.07,149.411 V 247.648 c 0.31,-23 3.8,-29.468 23.64,-29.699 h 5.69 v -1.199 -9.059 h -1.12 c -11.44,0 -22.78,1.059 -34.08,1.059 -11.84,0 -24,-1.059 -35.98,-1.059 h -1.08 v 1.129 9.129 h 1.08 3.73 c 17.41,0.051 22.43,11.27 22.64,32.313 v 111.297 c -0.01,14.082 -11.56,22.589 -22.91,22.589 h -4.54 v 1.153 9.078 h 1.08 c 10.13,0 20.43,-1.027 30.41,-1.027 7.84,0 15.43,1.027 24.39,0.617 l 116.08,-130.688 v 97.168 c -0.09,20.981 -14.16,23.531 -21.87,23.699 h -6.96 v 1.153 9.078 h 1.21 c 12.41,0 24.6,-1.027 36.91,-1.027 10.81,0 21.59,1.027 32.57,1.027 h 1.11 v -1.149 -9.082 h -1.11 -3.99 c -10.89,-0.277 -22.13,-1.277 -22.35,-32.398 V 231.551 c 0,-9.25 0.21,-18.473 1.49,-26.512 l 0.23,-1.301 z m -10.06,2.301 h 8.66 c -1.12,7.949 -1.38,16.723 -1.38,25.512 V 351.75 c 0,31.762 13.34,34.648 24.68,34.719 h 2.86 v 5.621 c -10.49,-0.078 -20.88,-1.039 -31.44,-1.039 -12.03,0 -23.84,0.961 -35.8,1.039 v -5.621 h 4.64 c 8.16,-0.071 24.11,-3.68 24.11,-26.02 l -0.28,-99.871 -0.51,-0.508 -0.84,-0.871 -117.57,132.891 c -7.82,0 -15.51,-1.039 -23.51,-1.039 -9.74,0 -19.66,0.961 -29.27,1.039 v -5.621 h 2.32 c 12.42,-0.071 25.18,-9.438 25.18,-24.91 V 250.262 c 0,-21.141 -5.9,-34.641 -24.91,-34.711 l -2.59,0.019 v -5.609 c 11.47,0.078 23.23,1.051 34.84,1.051 11.02,0 21.97,-0.973 32.92,-1.051 v 5.59 h -3.41 c -20.73,0.019 -25.93,9.097 -25.93,32.097 V 359.48 Z m -5.3,54.852 0.84,0.757 z m -0.61,0.519 v 0.07 l -0.21,0.2 z"
         style="fill:#231f20;fill-opacity:1;fill-rule:nonzero;stroke:none"
         id="path78" /><path
         d="m 2186.2,246.59 c -2.59,-8.949 -5.78,-15.891 -5.78,-20.578 0,-7.953 11.13,-9.262 19.79,-9.262 h 2.95 v -7.93 c -10.58,0.571 -21.42,1.02 -32,1.02 -9.51,0 -19.01,-0.449 -28.48,-1.02 v 7.93 h 1.5 c 10.36,0 19.11,6.09 22.97,17.191 l 42.36,121.219 c 3.41,9.801 8.19,23 9.71,32.801 8.49,2.891 19.03,8.141 24.12,11.348 0.74,0.273 1.27,0.543 2.09,0.543 0.77,0 1.27,0 1.81,-0.832 0.8,-2.09 1.59,-4.469 2.39,-6.579 l 48.61,-138.191 c 3.15,-9.219 6.34,-18.988 9.79,-26.961 3.17,-7.41 8.71,-10.539 17.42,-10.539 h 1.63 v -7.93 c -11.91,0.571 -23.81,1.02 -36.5,1.02 -12.92,0 -26.15,-0.449 -39.64,-1.02 v 7.93 h 2.93 c 6.04,0 16.4,1.051 16.4,7.66 0,3.41 -2.37,10.551 -5.32,19.039 l -10.3,30.633 h -59.96 z m 38.63,117.039 h -0.53 l -24.63,-74.77 h 49.48 l -24.32,74.77"
         style="fill:#231f20;fill-opacity:1;fill-rule:nonzero;stroke:none"
         id="path80" /><path
         d="m 2326.96,207.691 c -11.91,0.469 -23.77,1.059 -36.37,1.059 -12.89,0 -26.13,-0.59 -39.59,-1.059 l -1.17,-0.062 v 1.191 9.078 h 1.13 2.89 c 6.14,0 15.24,1.422 15.25,6.512 0.07,3.012 -2.32,10.219 -5.29,18.649 l -10.02,29.89 h -58.32 l -8.16,-26.699 c -2.66,-9.051 -5.78,-15.961 -5.75,-20.238 0,-6.473 9.91,-8.114 18.64,-8.114 h 4.04 v -1.136 -9.133 l -1.19,0.062 c -10.55,0.469 -21.37,1.059 -31.89,1.059 -9.47,0 -18.95,-0.59 -28.48,-1.059 l -1.15,-0.062 v 1.191 9.078 h 1.15 1.5 c 9.85,0.051 18.09,5.692 21.96,16.411 l 42.25,121.261 c 3.39,9.782 8.16,22.918 10.48,33.442 8.3,2.879 18.91,8.179 24.05,11.367 0.68,0.262 1.42,0.582 2.5,0.582 0.68,0.059 2.07,-0.109 2.88,-1.551 0.8,-2.078 1.58,-4.48 2.44,-6.609 l 48.58,-138.172 c 3.18,-9.25 6.33,-19.008 9.76,-26.891 3.11,-6.988 7.89,-9.769 16.34,-9.84 h 2.73 v -1.136 -9.133 z m -74.89,2.329 c 13.07,0.48 25.92,0.992 38.52,0.992 12.28,0 23.77,-0.512 35.3,-0.973 l -0.03,5.531 h -0.44 c -8.95,-0.019 -15.18,3.5 -18.48,11.289 -3.48,7.981 -6.62,17.789 -9.79,27.012 l -48.61,138.211 c -0.78,2.109 -1.62,4.469 -2.24,6.297 -0.22,0.312 -0.2,0.312 -0.36,0.312 h -0.52 c -0.57,0 -0.86,-0.179 -1.49,-0.359 -5.17,-3.23 -15.74,-8.531 -23.54,-10.543 -1.64,-10.008 -6.44,-23.187 -9.84,-33 l -42.31,-121.23 c -4.02,-11.477 -13.25,-18.008 -24.06,-17.989 h -0.39 v -5.531 c 9.1,0.461 18.18,0.973 27.37,0.973 10.23,0 20.68,-0.512 30.83,-0.973 v 5.531 h -1.79 c -8.59,0.121 -20.63,1.032 -20.97,10.442 0.07,5.218 3.32,11.957 5.91,20.91 l 1.06,-0.332 -1.06,0.359 8.69,28.231 h 61.58 l 10.61,-31.371 c 2.91,-8.5 5.32,-15.539 5.32,-19.399 -0.38,-8.09 -11.49,-8.691 -17.49,-8.84 h -1.78 z m -53.98,77.71 25.37,77.071 h 1.37 v -1.172 l -0.3,-0.078 0.3,0.078 v 1.172 h 0.8 l 24.98,-77.071 z m 3.19,2.301 h 46.22 l -22.98,70.75 z m 22.45,73.258 0.52,0.191 -0.52,-0.191"
         style="fill:#231f20;fill-opacity:1;fill-rule:nonzero;stroke:none"
         id="path82" /><path
         d="m 2393.62,234.73 c 0,-10.621 7.34,-13.75 15.82,-14.851 10.81,-0.789 22.71,-0.789 34.9,0.562 11.08,1.329 20.59,7.629 25.33,14.289 4.2,5.801 6.58,13.2 8.2,19 h 7.64 c -2.91,-15.058 -6.6,-29.871 -9.77,-44.91 -23.2,0 -46.52,1.02 -69.73,1.02 -23.27,0 -46.5,-1.02 -69.74,-1.02 v 7.942 h 3.66 c 9.53,0 19.87,1.297 19.87,17.679 v 135.77 c 0,13.769 -10.34,15.09 -19.87,15.09 h -3.66 v 7.929 c 13.98,0 27.74,-1.05 41.72,-1.05 13.5,0 26.68,1.05 40.19,1.05 v -7.929 h -6.64 c -10.04,0 -17.92,-0.281 -17.92,-14.281 V 234.73"
         style="fill:#231f20;fill-opacity:1;fill-rule:nonzero;stroke:none"
         id="path84" /><path
         d="m 2475.75,207.691 c -23.3,0 -46.57,1.059 -69.74,1.059 -23.24,0 -46.49,-1.059 -69.79,-1.059 h -1.11 v 1.129 9.078 h 1.11 3.71 c 9.55,0.231 18.62,0.903 18.73,16.543 v 135.821 c -0.11,12.859 -9.14,13.718 -18.73,13.886 h -4.82 v 1.153 9.078 h 1.11 c 14.07,0 27.82,-1.027 41.75,-1.027 13.45,0 26.61,1.027 40.21,1.027 h 1.06 v -1.149 -9.082 h -1.06 -6.64 c -10.25,-0.257 -16.61,0.204 -16.84,-13.128 V 234.73 c 0.07,-9.878 6.54,-12.519 14.8,-13.699 4.65,-0.32 9.57,-0.492 14.65,-0.492 6.46,0 13.17,0.301 20,1.02 10.76,1.281 20.02,7.5 24.59,13.8 4.08,5.653 6.38,12.891 7.98,18.641 l 0.22,0.871 h 0.9 9.06 l -0.23,-1.391 c -2.99,-15.101 -6.63,-29.839 -9.83,-44.898 l -0.21,-0.891 z m -0.97,2.278 c 3.06,14.351 6.51,28.383 9.37,42.633 h -5.45 c -1.62,-5.75 -3.98,-12.84 -8.12,-18.59 -4.94,-6.84 -14.72,-13.301 -26.18,-14.723 -6.91,-0.699 -13.78,-1.059 -20.25,-1.059 -5.12,0 -10.06,0.231 -14.87,0.571 -8.59,0.937 -16.9,4.629 -16.89,15.929 v 136.29 c 0,14.691 9.29,15.449 19.15,15.449 h 5.44 v 5.621 c -13.01,-0.078 -25.86,-1.07 -39.01,-1.07 -13.65,0 -27.04,0.992 -40.56,1.07 v -5.621 h 2.52 c 9.42,0 20.95,-1.649 20.95,-16.207 V 234.441 c 0,-17.101 -11.48,-18.871 -20.95,-18.871 h -2.52 v -5.601 c 22.82,0.051 45.66,1.043 68.6,1.043 22.97,0 45.9,-0.992 68.77,-1.043"
         style="fill:#231f20;fill-opacity:1;fill-rule:nonzero;stroke:none"
         id="path86" /><path
         d="m 2482.29,400.719 c 15.94,0 27.83,-12.239 27.83,-27.879 0,-15.629 -11.89,-27.738 -27.83,-27.738 -15.9,0 -27.81,12.109 -27.81,27.738 0,15.64 11.91,27.879 27.81,27.879 m 0,-50.449 c 12.48,0 22.01,10.609 22.01,22.57 0,11.98 -9.42,22.672 -22.01,22.672 -12.52,0 -22.04,-10.692 -22.04,-22.672 0,-11.961 9.52,-22.57 22.04,-22.57 m -13.83,7.902 v 1.348 c 3.4,0.492 4.04,0.402 4.04,2.48 v 20.621 c 0,2.899 -0.29,3.899 -3.93,3.738 v 1.422 h 14.24 c 4.89,0 9.4,-2.34 9.4,-7.402 0,-4.129 -2.72,-7.199 -6.58,-8.391 l 4.58,-6.379 c 2.13,-2.879 4.56,-5.597 6.12,-6.558 v -0.879 h -5.41 c -2.6,0 -4.9,5.457 -10,12.789 h -3.08 v -9.223 c 0,-1.816 0.64,-1.726 4.06,-2.218 v -1.348 z m 9.38,14.668 h 3.28 c 3.59,0 5.25,2.711 5.25,7.101 0,4.418 -2.56,5.989 -5.43,5.989 h -3.1 v -13.09"
         style="fill:#231f20;fill-opacity:1;fill-rule:nonzero;stroke:none"
         id="path88" /><path
         d="m 832.227,1325.9 c 0,247.11 200.323,447.43 447.423,447.43 247.11,0 447.43,-200.32 447.43,-447.43 0,-247.11 -200.32,-447.439 -447.43,-447.439 -247.1,0 -447.423,200.329 -447.423,447.439"
         style="fill:#ffffff;fill-opacity:1;fill-rule:nonzero;stroke:none"
         id="path90" /><path
         d="m 1550.24,1334.71 c -0.18,114.58 -71.8,212.3 -172.72,251 v -501.98 c 100.92,38.75 172.54,136.38 172.72,250.98 z M 1185,1083.83 v 501.83 c -100.83,-38.82 -172.34,-136.4 -172.61,-250.95 0.27,-114.51 71.78,-212.09 172.61,-250.88 z m 96.31,675.17 c -234.32,-0.09 -424.162,-189.97 -424.201,-424.29 0.039,-234.29 189.881,-424.14 424.201,-424.179 234.32,0.039 424.2,189.889 424.26,424.179 -0.06,234.32 -189.94,424.2 -424.26,424.29 z m -1.04,-888.512 C 1023.86,869.27 812.82,1077 812.82,1329.87 c 0,276.36 211.04,467.51 467.45,467.46 h 120.16 c 253.38,0.05 484.63,-191.01 484.63,-467.46 0,-252.78 -231.25,-459.382 -484.63,-459.382 h -120.16"
         style="fill:#214e8d;fill-opacity:1;fill-rule:nonzero;stroke:none"
         id="path92" /></g></g></svg>
