<?xml version="1.0" encoding="utf-8"?>
<!-- Generator: Adobe Illustrator 24.3.0, SVG Export Plug-In . SVG Version: 6.00 Build 0)  -->
<svg version="1.1" id="Layer_1" xmlns="http://www.w3.org/2000/svg" xmlns:xlink="http://www.w3.org/1999/xlink" x="0px" y="0px"
	 width="70px" height="50px" viewBox="0 0 70 50" style="enable-background:new 0 0 70 50;" xml:space="preserve">
<style type="text/css">
	.st0{fill:#FFFFFF;}
	.st1{fill:url(#SVGID_1_);}
	.st2{fill:url(#SVGID_2_);}
	.st3{fill:url(#SVGID_3_);}
	.st4{fill:url(#SVGID_4_);}
	.st5{fill:url(#SVGID_5_);}
</style>
<g>
	<path class="st0" d="M61.4,37.6c0,4.6-3.7,8.3-8.3,8.3H7.9V13c0-4.6,3.7-8.3,8.3-8.3h45.2C61.4,4.7,61.4,37.6,61.4,37.6z"/>
	<g>
		
			<linearGradient id="SVGID_1_" gradientUnits="userSpaceOnUse" x1="43.5651" y1="-203.9177" x2="56.6509" y2="-203.9177" gradientTransform="matrix(1.125 0 0 1.125 -5.1825 257.1385)">
			<stop  offset="0" style="stop-color:#007F49"/>
			<stop  offset="0.2883" style="stop-color:#209248"/>
			<stop  offset="0.7632" style="stop-color:#50AF47"/>
			<stop  offset="1" style="stop-color:#62BA46"/>
		</linearGradient>
		<path class="st1" d="M46.7,29.2h3.4c0.1,0,0.3,0,0.4,0c0.7-0.1,1.2-0.7,1.2-1.5c0-0.8-0.6-1.4-1.2-1.5c-0.1,0-0.3,0-0.4,0h-3.4
			V29.2z"/>
		
			<linearGradient id="SVGID_2_" gradientUnits="userSpaceOnUse" x1="43.5648" y1="-206.0511" x2="56.651" y2="-206.0511" gradientTransform="matrix(1.125 0 0 1.125 -5.1825 257.1385)">
			<stop  offset="0" style="stop-color:#007F49"/>
			<stop  offset="0.2883" style="stop-color:#209248"/>
			<stop  offset="0.7632" style="stop-color:#50AF47"/>
			<stop  offset="1" style="stop-color:#62BA46"/>
		</linearGradient>
		<path class="st2" d="M49.7,7.4c-3.3,0-6,2.7-6,6v6.2h8.4c0.2,0,0.4,0,0.6,0c1.9,0.1,3.3,1.1,3.3,2.8c0,1.3-1,2.5-2.7,2.7v0.1
			c1.9,0.1,3.4,1.2,3.4,2.9c0,1.8-1.6,3-3.8,3h-9.2v12.1h8.7c3.3,0,6-2.7,6-6V7.4H49.7z"/>
		
			<linearGradient id="SVGID_3_" gradientUnits="userSpaceOnUse" x1="43.565" y1="-208.2288" x2="56.65" y2="-208.2288" gradientTransform="matrix(1.125 0 0 1.125 -5.1825 257.1385)">
			<stop  offset="0" style="stop-color:#007F49"/>
			<stop  offset="0.2883" style="stop-color:#209248"/>
			<stop  offset="0.7632" style="stop-color:#50AF47"/>
			<stop  offset="1" style="stop-color:#62BA46"/>
		</linearGradient>
		<path class="st3" d="M51.3,22.8c0-0.8-0.6-1.3-1.2-1.4c-0.1,0-0.2,0-0.3,0h-3.1v2.9h3.1c0.1,0,0.3,0,0.3,0
			C50.8,24.1,51.3,23.6,51.3,22.8z"/>
	</g>
	
		<linearGradient id="SVGID_4_" gradientUnits="userSpaceOnUse" x1="14.2823" y1="-206.0511" x2="27.5705" y2="-206.0511" gradientTransform="matrix(1.125 0 0 1.125 -5.1825 257.1385)">
		<stop  offset="0" style="stop-color:#333377"/>
		<stop  offset="7.143253e-02" style="stop-color:#2F397D"/>
		<stop  offset="0.6913" style="stop-color:#0D66AD"/>
		<stop  offset="1" style="stop-color:#0077BF"/>
	</linearGradient>
	<path class="st4" d="M16.8,7.4c-3.3,0-6,2.7-6,6v14.7c1.7,0.8,3.4,1.3,5.1,1.3c2.1,0,3.2-1.3,3.2-2.9v-6.9h5.1v6.9
		c0,2.7-1.7,4.9-7.3,4.9c-3.4,0-6.1-0.7-6.1-0.7v12.5h8.7c3.3,0,6-2.7,6-6V7.4H16.8z"/>
	
		<linearGradient id="SVGID_5_" gradientUnits="userSpaceOnUse" x1="28.8601" y1="-206.0955" x2="41.7657" y2="-206.0955" gradientTransform="matrix(1.125 0 0 1.125 -5.1825 257.1385)">
		<stop  offset="0" style="stop-color:#743237"/>
		<stop  offset="0.4006" style="stop-color:#AA263E"/>
		<stop  offset="0.8011" style="stop-color:#DA1C44"/>
		<stop  offset="1" style="stop-color:#EC1846"/>
	</linearGradient>
	<path class="st5" d="M33.2,7.4c-3.3,0-6,2.7-6,6v7.8c1.5-1.3,4.1-2.1,8.4-1.9c2.3,0.1,4.7,0.7,4.7,0.7v2.5
		c-1.2-0.6-2.6-1.2-4.5-1.3c-3.2-0.2-5.2,1.3-5.2,4.1s1.9,4.4,5.2,4.1c1.9-0.1,3.3-0.7,4.5-1.3v2.5c0,0-2.4,0.6-4.7,0.7
		c-4.2,0.2-6.8-0.6-8.4-1.9v13.7h8.7c3.3,0,6-2.7,6-6V7.4L33.2,7.4L33.2,7.4z"/>
</g>
</svg>
