<?xml version="1.0" encoding="UTF-8" standalone="no"?>
<!-- Created with Inkscape (http://www.inkscape.org/) -->

<svg
   version="1.1"
   id="svg2"
   xml:space="preserve"
   width="219.16"
   height="137.09332"
   viewBox="0 0 219.16 137.09332"
   sodipodi:docname="union.eps"
   xmlns:inkscape="http://www.inkscape.org/namespaces/inkscape"
   xmlns:sodipodi="http://sodipodi.sourceforge.net/DTD/sodipodi-0.dtd"
   xmlns="http://www.w3.org/2000/svg"
   xmlns:svg="http://www.w3.org/2000/svg"><defs
     id="defs6" /><sodipodi:namedview
     id="namedview4"
     pagecolor="#ffffff"
     bordercolor="#666666"
     borderopacity="1.0"
     inkscape:pageshadow="2"
     inkscape:pageopacity="0.0"
     inkscape:pagecheckerboard="0" /><g
     id="g8"
     inkscape:groupmode="layer"
     inkscape:label="ink_ext_XXXXXX"
     transform="matrix(1.3333333,0,0,-1.3333333,0,137.09333)"><g
       id="g10"
       transform="scale(0.1)"><path
         d="m 321.902,1028.2 h 410.274 c 57.265,0 92.89,-46.68 79.531,-104.141 L 620.691,103.98 C 607.215,46.7148 549.871,0 492.566,0 H 82.332 C 25.1445,0 -10.5586,46.7148 2.80078,103.98 L 193.895,924.059 c 13.359,57.461 70.664,104.141 128.007,104.141"
         style="fill:#e51636;fill-opacity:1;fill-rule:nonzero;stroke:none"
         id="path12" /><path
         d="m 698.035,1028.2 h 471.795 c 57.27,0 31.45,-46.68 17.97,-104.141 L 996.824,103.98 C 983.426,46.7148 987.605,0 930.223,0 H 458.426 C 401.043,0 365.535,46.7148 379.012,103.98 L 569.988,924.059 C 583.543,981.52 640.73,1028.2 698.035,1028.2"
         style="fill:#104076;fill-opacity:1;fill-rule:nonzero;stroke:none"
         id="path14" /><path
         d="m 1151.12,1028.2 h 410.27 c 57.35,0 92.97,-46.68 79.5,-104.141 L 1449.91,103.98 C 1436.43,46.7148 1379.05,0 1321.71,0 H 911.629 C 854.246,0 818.66,46.7148 832.098,103.98 l 191.012,820.079 c 13.36,57.461 70.63,104.141 128.01,104.141"
         style="fill:#007582;fill-opacity:1;fill-rule:nonzero;stroke:none"
         id="path16" /><path
         d="m 1218.35,422.73 -50.04,-165.507 h 13.51 l -10.46,-34.18 H 1158 l -3.17,-10.547 h -47.61 l 3.24,10.547 h -96.64 l 9.65,31.641 h 9.84 l 50.7,168.046 10.12,33.868 h 48.52 l -5.08,-17.071 c 0,0 12.93,9.297 25.19,12.461 12.23,3.242 82.58,4.414 82.58,4.414 l -10.39,-33.672 h -16.6 m -85.55,0 -12.85,-42.304 c 0,0 14.45,6.523 22.23,8.672 7.97,2.109 19.88,2.812 19.88,2.812 l 9.3,30.82 h -38.56 m -19.26,-63.242 -13.28,-44.023 c 0,0 14.73,7.5 22.58,9.883 7.97,1.797 20.08,3.32 20.08,3.32 l 9.37,30.82 h -38.75 m -30.89,-102.656 h 38.67 l 11.09,37.148 h -38.55 l -11.21,-37.148"
         style="fill:#ffffff;fill-opacity:1;fill-rule:evenodd;stroke:none"
         id="path18" /><path
         d="m 1239.75,456.402 h 51.88 l 0.51,-19.297 c -0.36,-3.281 2.46,-4.804 8.51,-4.804 h 10.55 l -9.65,-31.875 h -28.01 c -24.22,-1.719 -33.43,8.672 -32.81,20.39 l -0.98,35.586"
         style="fill:#ffffff;fill-opacity:1;fill-rule:nonzero;stroke:none"
         id="path20" /><path
         d="m 1246.63,305.191 h -49.41 l 8.47,28.36 h 56.49 l 8,25.937 h -55.74 l 9.49,31.992 h 155.12 l -9.65,-31.992 h -52.03 l -8.12,-25.937 h 52.18 l -8.67,-28.36 h -56.37 l -10.03,-11.953 h 22.89 l 5.58,-35.742 c 0.63,-3.555 0.63,-5.898 1.8,-7.422 1.17,-1.25 8.05,-1.914 12.03,-1.914 h 6.95 l -10.58,-34.765 h -17.62 c -2.7,0 -6.76,0.195 -12.38,0.429 -5.24,0.469 -8.95,3.555 -12.54,5.352 -3.24,1.523 -8.05,5.429 -9.22,12.109 l -5.51,35.664 -25.66,-35.117 c -8.13,-11.133 -19.14,-19.609 -37.78,-19.609 h -35.85 l 9.41,31.054 h 13.71 c 3.98,0 7.42,1.563 10.04,2.891 2.62,1.094 4.96,2.461 7.58,6.328 l 37.42,52.695"
         style="fill:#ffffff;fill-opacity:1;fill-rule:nonzero;stroke:none"
         id="path22" /><path
         d="m 705.691,382.887 h 130.86 l -9.688,-31.172 h -52.304 l -8.164,-26.641 h 53.515 l -9.765,-32.187 H 756.668 L 743.66,249.605 c -1.562,-4.765 12.735,-5.39 17.891,-5.39 l 26.719,3.672 -10.743,-35.664 h -60.273 c -4.883,0 -8.477,0.703 -13.711,1.875 -5.078,1.289 -7.344,3.554 -9.57,6.992 -2.188,3.515 -5.625,6.406 -3.282,13.984 l 17.344,57.266 h -29.726 l 9.882,32.734 h 29.805 l 7.93,26.641 h -29.727 l 9.492,31.172"
         style="fill:#ffffff;fill-opacity:1;fill-rule:nonzero;stroke:none"
         id="path24" /><path
         d="m 793.699,438.98 h 53.672 l -9.726,-32.617 h -73.321 l -7.929,-6.875 c -3.438,-3.32 -4.61,-1.953 -9.063,-4.336 -4.141,-2.07 -12.812,-6.211 -24.102,-6.211 h -23.476 l 9.453,31.329 h 7.07 c 5.938,0 10.039,0.546 12.11,1.835 2.343,1.524 4.961,4.844 7.851,10.196 l 13.555,24.492 h 53.281 l -9.375,-17.813"
         style="fill:#ffffff;fill-opacity:1;fill-rule:nonzero;stroke:none"
         id="path26" /><path
         d="m 870.418,456.402 h 45.703 l -6.68,-23.007 c 0,0 14.454,11.562 24.571,15.703 10.039,3.711 32.812,7.07 32.812,7.07 l 73.986,0.43 -25.2,-83.946 c -4.25,-14.336 -9.21,-23.632 -12.3,-27.89 -2.77,-4.258 -6.056,-7.969 -12.462,-11.485 -6.211,-3.359 -11.914,-5.234 -17.149,-5.781 -4.883,-0.351 -12.383,-0.469 -22.773,-0.625 h -71.289 l -20.039,-66.328 c -1.914,-6.602 -2.813,-9.766 -1.563,-11.563 1.016,-1.523 3.438,-3.32 6.797,-3.32 l 31.445,2.969 -10.781,-36.406 h -35.117 c -11.211,0 -19.336,0.273 -25.039,0.703 -5.43,0.469 -11.094,0 -14.922,2.89 -3.242,2.891 -8.242,6.719 -8.125,10.586 0.352,3.594 1.875,9.571 4.141,17.813 l 63.984,212.187 m 97.031,-84.726 h -74.883 l -4.609,-15.078 h 64.844 c 7.617,0.898 9.219,-0.196 9.883,0.156 l 4.765,14.922 m -70.82,13.633 c 0,0 14.648,13.398 39.726,17.734 5.704,1.055 41.29,0.703 41.29,0.703 l 5.429,17.969 h -75.508 l -10.937,-36.406"
         style="fill:#ffffff;fill-opacity:1;fill-rule:evenodd;stroke:none"
         id="path28" /><path
         d="m 1003.7,321.012 -4.259,-20.157 c -1.796,-6.328 -3.359,-11.015 -8.125,-15.078 -5,-4.257 -10.859,-8.711 -24.57,-8.711 l -25.391,-1.054 -0.195,-22.774 c -0.273,-6.406 1.445,-5.781 2.461,-6.797 1.172,-1.171 2.227,-1.601 3.32,-2.07 l 8.047,0.469 24.219,1.328 -10.039,-33.242 h -27.813 c -19.453,0 -33.906,0.469 -38.593,4.179 -4.688,2.969 -5.313,6.68 -5.235,13.086 l 1.797,88.829 h 44.375 l -0.625,-18.165 h 10.664 c 3.672,0 6.133,0.352 7.657,1.329 1.367,1.015 2.343,2.382 2.968,4.609 l 4.453,14.219 h 34.884"
         style="fill:#ffffff;fill-opacity:1;fill-rule:nonzero;stroke:none"
         id="path30" /><path
         d="m 370.418,766.324 c -1.523,-7.265 -30,-138.594 -30.078,-138.711 -6.133,-26.562 -10.586,-45.508 -25.742,-57.734 -8.594,-7.109 -18.633,-10.547 -30.274,-10.547 -18.711,0 -29.609,9.297 -31.445,26.914 l -0.352,6.055 c 0,0 5.703,35.586 5.703,35.781 0,0 29.883,119.688 35.235,135.508 0.273,0.898 0.351,1.367 0.43,1.797 -58.165,-0.508 -68.477,0 -69.18,0.937 -0.391,-1.289 -1.836,-8.711 -1.836,-8.711 l -30.508,-134.883 -2.617,-11.445 -5.078,-37.422 c 0,-11.093 2.187,-20.156 6.523,-27.812 13.906,-24.297 53.555,-27.93 75.977,-27.93 28.906,0 56.015,6.133 74.336,17.344 31.797,18.789 40.117,48.164 47.539,74.258 l 3.437,13.398 c 0,0 30.782,124.297 36.016,140.469 0.195,0.898 0.273,1.367 0.547,1.797 -42.188,-0.43 -54.649,0 -58.633,0.937"
         style="fill:#ffffff;fill-opacity:1;fill-rule:nonzero;stroke:none"
         id="path32" /><path
         d="m 540.73,519.41 c -20.585,0.352 -27.929,0.352 -52.031,-0.937 l -0.898,1.836 c 2.07,9.218 4.336,18.242 6.406,27.539 l 2.969,12.578 c 4.453,19.492 8.789,42.187 9.297,49.14 0.468,4.141 1.914,14.532 -10,14.532 -5,0 -10.235,-2.422 -15.547,-4.883 -2.891,-10.391 -8.75,-39.57 -11.563,-52.852 -5.976,-28.008 -6.328,-31.25 -9.023,-45.078 l -1.719,-1.875 c -21.25,0.352 -28.672,0.352 -53.125,-0.937 l -1.094,2.109 c 4.063,16.602 8.125,33.398 12.032,50.039 10.273,45.156 12.734,62.422 15.507,85.391 l 1.993,1.328 c 23.867,3.359 29.648,4.062 55.468,9.297 l 2.188,-2.422 -3.985,-14.375 c 4.415,2.617 8.594,5.234 13.008,7.5 12.188,5.976 25.742,7.773 33.164,7.773 11.368,0 23.75,-3.164 28.907,-16.25 4.882,-11.679 1.64,-26.015 -4.805,-54.297 l -3.32,-14.453 c -6.602,-31.445 -7.696,-37.226 -11.407,-58.828 l -2.422,-1.875"
         style="fill:#ffffff;fill-opacity:1;fill-rule:nonzero;stroke:none"
         id="path34" /><path
         d="m 624.559,519.41 c -12.461,0.078 -20.508,0.352 -28.282,0.078 -7.773,-0.078 -15.351,-0.468 -26.914,-1.015 l -0.625,1.015 -0.742,1.094 c 3.164,11.914 4.883,16.055 6.445,20.313 1.602,4.257 3.047,8.476 5.86,20.585 3.633,15.821 5.859,26.836 7.304,36.524 1.719,9.375 2.618,17.344 3.907,26.562 l 0.898,0.704 0.977,0.898 c 12.383,1.719 20.234,2.891 28.281,4.18 8.125,1.054 16.289,2.695 29.102,5.156 l 0.468,-1.094 0.352,-1.172 c -2.344,-9.765 -4.805,-19.531 -7.149,-29.453 -2.265,-9.961 -4.687,-19.687 -6.875,-29.453 -4.609,-20.781 -6.484,-28.555 -7.578,-34.18 -1.093,-5.234 -1.367,-8.125 -3.164,-18.867 l -1.172,-0.976 -1.093,-0.899"
         style="fill:#ffffff;fill-opacity:1;fill-rule:nonzero;stroke:none"
         id="path36" /><path
         d="m 809.91,590.504 c 7.227,31.719 1.602,46.523 -5.469,55.547 -10.742,13.75 -29.726,18.164 -49.414,18.164 -11.836,0 -40.039,-1.172 -62.07,-21.485 -15.82,-14.648 -23.125,-34.531 -27.539,-53.593 -4.453,-19.414 -9.57,-54.375 22.578,-67.383 9.922,-4.258 24.219,-5.43 33.438,-5.43 23.554,0 47.695,6.485 65.859,25.742 13.984,15.625 20.391,38.868 22.617,48.438 m -54.062,2.266 c -1.016,-5.352 -5.703,-25.235 -12.032,-33.711 -4.414,-6.25 -9.648,-10.039 -15.429,-10.039 -1.719,0 -11.953,0 -12.11,15.195 -0.078,7.5 1.446,15.156 3.321,23.476 5.429,24.024 11.836,44.18 28.203,44.18 12.812,0 13.75,-15 8.047,-39.101"
         style="fill:#ffffff;fill-opacity:1;fill-rule:nonzero;stroke:none"
         id="path38" /><path
         d="m 1314.36,517.301 c -24.92,0.195 -32.07,0.195 -55.07,-0.781 l -1.45,1.875 c 6.21,23.671 12.46,47.265 18.05,71.21 7.22,31.055 8.86,44.258 11.21,62.422 l 1.87,1.524 c 24.77,3.515 31.64,4.531 57.39,9.297 l 0.74,-2.149 c -4.73,-19.531 -9.34,-38.945 -13.95,-58.554 -9.45,-40.938 -12.89,-61.719 -16.52,-83.125 l -2.27,-1.719"
         style="fill:#ffffff;fill-opacity:1;fill-rule:nonzero;stroke:none"
         id="path40" /><path
         d="m 1326.2,587.691 c 7.23,31.524 -21.95,2.813 -26.56,13.204 -7.11,16.25 -2.7,49.14 -31.33,60.156 -11.02,4.336 -36.88,-1.25 -59.1,-21.485 -15.63,-14.453 -23.13,-34.257 -27.39,-53.242 -4.49,-19.14 -9.64,-54.101 22.35,-66.562 10.19,-4.336 19.33,-5.625 28.63,-5.157 32.15,1.719 56.64,50.313 74.81,69.493 13.98,15.234 16.44,-5.703 18.59,3.593 m -49.22,2.344 c -1.25,-5.156 -5.98,-25.195 -12.3,-33.594 -4.22,-5.976 -14.26,-9.687 -20.04,-9.687 -1.64,0 -11.76,0 -12.11,14.922 -0.08,7.422 1.44,15.078 3.36,23.476 5.51,23.594 11.83,43.555 28.24,43.555 12.85,0 18.36,-14.531 12.85,-38.672"
         style="fill:#ffffff;fill-opacity:1;fill-rule:nonzero;stroke:none"
         id="path42" /><path
         d="m 950.848,519.41 c -20.703,0.352 -27.774,0.352 -51.953,-0.937 l -0.899,1.836 c 2.07,9.218 4.414,18.242 6.563,27.539 l 2.812,12.578 c 4.531,19.492 8.867,42.187 9.297,49.14 0.469,4.141 1.914,14.532 -9.922,14.532 -5.156,0 -10.312,-2.422 -15.625,-4.883 -2.812,-10.391 -8.789,-39.57 -11.68,-52.852 -5.781,-28.008 -6.211,-31.25 -8.828,-45.078 l -1.836,-1.875 c -21.211,0.352 -28.515,0.352 -53.007,-0.937 l -1.094,2.109 c 4.062,16.602 8.125,33.398 12.031,50.039 10.273,45.156 12.617,62.422 15.508,85.391 l 1.836,1.328 c 23.828,3.359 29.726,4.062 55.547,9.297 l 1.992,-2.422 -3.711,-14.375 c 4.258,2.617 8.594,5.234 12.93,7.5 12.109,5.976 25.742,7.773 33.164,7.773 11.211,0 23.672,-3.164 28.984,-16.25 4.805,-11.679 1.523,-26.015 -4.961,-54.297 l -3.242,-14.453 c -6.797,-31.445 -7.774,-37.226 -11.406,-58.828 l -2.5,-1.875"
         style="fill:#ffffff;fill-opacity:1;fill-rule:nonzero;stroke:none"
         id="path44" /><path
         d="m 1151.94,689.41 c -3.63,-16.445 -14.29,-30.273 -28.01,-36.953 -11.28,-5.664 -25.11,-6.133 -39.37,-6.133 h -9.22 l 0.7,3.711 c 0,0 17,73.906 16.92,73.633 l 0.54,3.789 0.24,2.891 6.8,-0.703 c 0,0 35.03,-3.008 35.86,-3.086 13.82,-5.352 19.53,-19.141 15.54,-37.149 m -22.3,77.07 c -0.12,0 -17.19,-0.156 -17.19,-0.156 -44.61,-0.547 -62.5,-0.39 -69.84,0.508 -0.63,-3.242 -1.8,-9.023 -1.8,-9.023 0,0 -15.98,-74.063 -15.98,-74.18 0,0 -38.24,-157.461 -40.037,-164.883 38.947,0.469 54.927,0.469 61.637,-0.273 1.53,7.422 10.55,51.406 10.63,51.406 0,0 7.69,32.266 8.16,33.437 0,0 2.43,3.36 4.85,4.688 h 3.55 c 33.6,0 71.53,0 101.25,21.875 20.24,15 34.06,37.148 40.24,64.062 1.6,6.602 2.77,14.454 2.77,22.305 0,10.313 -2.07,20.508 -8.05,28.477 -15.15,21.211 -45.35,21.601 -80.19,21.757"
         style="fill:#ffffff;fill-opacity:1;fill-rule:nonzero;stroke:none"
         id="path46" /><path
         d="m 1518.19,663.043 -1.99,2.266 c -25.47,-5.157 -30.08,-5.977 -53.48,-9.141 l -1.72,-1.719 c -0.07,-0.273 -0.15,-0.703 -0.27,-1.094 l -0.08,0.391 c -17.42,-40.195 -16.91,-31.523 -31.09,-63.164 -0.08,1.445 -0.08,2.344 -0.16,3.867 l -3.55,68.594 -2.23,2.266 c -26.68,-5.157 -27.3,-5.977 -51.95,-9.141 l -1.92,-1.719 c -0.27,-0.82 -0.27,-1.719 -0.43,-2.695 l 0.16,-0.352 c 3.09,-15.742 2.34,-12.226 5.43,-37.07 1.45,-12.187 3.36,-24.453 4.8,-36.484 2.43,-20.157 3.79,-30.078 6.76,-60.821 -16.64,-27.461 -20.58,-37.851 -36.6,-61.953 l 1.02,-2.265 c 24.02,0.898 29.61,0.898 47.42,0.898 l 3.87,4.414 c 13.47,29.024 116.01,204.922 116.01,204.922"
         style="fill:#ffffff;fill-opacity:1;fill-rule:nonzero;stroke:none"
         id="path48" /><path
         d="m 647.137,646.051 c 13.672,9.492 15.39,22.578 3.906,29.375 -11.641,6.875 -32.07,4.687 -45.82,-4.805 -13.711,-9.297 -15.274,-22.5 -3.672,-29.453 11.445,-6.68 31.953,-4.688 45.586,4.883"
         style="fill:#ffffff;fill-opacity:1;fill-rule:nonzero;stroke:none"
         id="path50" /><path
         d="m 1400.38,455.699 -20.04,-34.336 c -6.33,-11.758 -18.09,-20.508 -36.8,-20.586 l -31.87,0.547 9.29,30.899 h 6.25 c 3.25,0 5.59,0.156 7.39,1.054 1.64,0.547 2.81,1.836 4.1,3.711 l 11.83,18.711 h 49.85"
         style="fill:#ffffff;fill-opacity:1;fill-rule:nonzero;stroke:none"
         id="path52" /></g></g></svg>
