<svg xmlns="http://www.w3.org/2000/svg" xmlns:xlink="http://www.w3.org/1999/xlink" viewBox="0 0 562.28 121.51"><defs><style>.cls-1{fill:#fff;}.cls-2{fill:url(#linear-gradient);}.cls-3{fill-rule:evenodd;fill:url(#linear-gradient-2);}</style><linearGradient id="linear-gradient" x1="475.14" y1="63.13" x2="498.9" y2="63.13" gradientUnits="userSpaceOnUse"><stop offset="0" stop-color="#500cff"/><stop offset="0.91" stop-color="#743eff"/></linearGradient><linearGradient id="linear-gradient-2" x1="0" y1="60.75" x2="130.25" y2="60.75" xlink:href="#linear-gradient"/></defs><g id="Layer_2" data-name="Layer 2"><g id="Layer_1-2" data-name="Layer 1"><path class="cls-1" d="M146.28,0V15.92H173.8V93.67h17V15.92h27.52V0Z"/><path class="cls-1" d="M283.13,32.49c-4.44-4.65-10.55-7-18.29-7q-17.41.27-24.36,13.53V0H224V93.67h16.44V60.47c0-5.65,1.6-10.26,4.8-13.88s7.52-5.47,13-5.58c4.62,0,8.27,1.39,11,4.12s4.05,6.46,4.05,11.18V93.67h16.55V51.52C289.84,43.5,287.6,37.18,283.13,32.49Z"/><path class="cls-1" d="M308.27,26.13V93.67h16.4V26.13ZM323,3.17a9.48,9.48,0,0,0-13.39,0A9.77,9.77,0,0,0,307,10.23a9.58,9.58,0,0,0,2.66,7,9.48,9.48,0,0,0,13.39,0,9.62,9.62,0,0,0,2.66-7A9.81,9.81,0,0,0,323,3.17Z"/><path class="cls-1" d="M401.05,92.92l-.11-44.17c-.11-7.6-2.56-13.46-7.39-17.68s-11.64-6.32-20.41-6.32a52.78,52.78,0,0,0-15.2,1.95,75.91,75.91,0,0,0-14.45,6.39l5.93,11.36q10.49-6.33,20.06-6.32c5,0,8.77,1.11,11.36,3.27s3.91,5.29,3.91,9.23v1.78H365.08c-8.17.07-14.49,1.92-19,5.47s-6.68,8.52-6.68,14.84a20.08,20.08,0,0,0,2.91,10.72A19.64,19.64,0,0,0,350.62,91a27.09,27.09,0,0,0,12.43,2.7A33.3,33.3,0,0,0,375.8,91.4a21.92,21.92,0,0,0,9.09-6.68v8.2Zm-16.3-23.47c-.39,3.27-2.31,6-5.65,8.28A21.5,21.5,0,0,1,367,81.06c-3.69,0-6.64-.85-8.77-2.52A8.32,8.32,0,0,1,355,71.72q0-4.41,3.09-6.39c2.09-1.28,5.29-1.95,9.65-1.95h17.05Z"/><path class="cls-1" d="M496.38,5.29H478.81L440.07,93.67h17.54L465.42,75l6.07-14.52,15.66-37.11,15.41,37.11,6,14.52,7.84,18.68h18.18Z"/><path class="cls-1" d="M545.35,5.29V93.67h16.93V5.29Z"/><polygon class="cls-2" points="498.9 77.32 475.14 77.32 487.11 48.94 498.9 77.32"/><path class="cls-3" d="M130.25,0V94.41H78.63V40.65H112.5V24.53H38V0ZM21.85,40.65H38v59.53l38.08,21.33V109.24h0V97H62.51V40.65H38V24.53H21.85Zm-5.73-1.94H0V54.83H16.12ZM24.18,0H8.06V16.12H24.18Z"/></g></g></svg>